<?xml version="1.0" encoding="UTF-8" standalone="no"?>
<svg
   xmlns:dc="http://purl.org/dc/elements/1.1/"
   xmlns:cc="http://creativecommons.org/ns#"
   xmlns:rdf="http://www.w3.org/1999/02/22-rdf-syntax-ns#"
   xmlns:svg="http://www.w3.org/2000/svg"
   xmlns="http://www.w3.org/2000/svg"
   xmlns:sodipodi="http://sodipodi.sourceforge.net/DTD/sodipodi-0.dtd"
   xmlns:inkscape="http://www.inkscape.org/namespaces/inkscape"
   fill="none"
   viewBox="0 0 256 56"
   version="1.1"
   id="svg119"
   sodipodi:docname="logo-gh.svg"
   inkscape:version="1.0.2 (e86c870879, 2021-01-15, custom)">
  <metadata
     id="metadata123">
    <rdf:RDF>
      <cc:Work
         rdf:about="">
        <dc:format>image/svg+xml</dc:format>
        <dc:type
           rdf:resource="http://purl.org/dc/dcmitype/StillImage" />
      </cc:Work>
    </rdf:RDF>
  </metadata>
  <sodipodi:namedview
     pagecolor="#ffffff"
     bordercolor="#666666"
     borderopacity="1"
     objecttolerance="10"
     gridtolerance="10"
     guidetolerance="10"
     inkscape:pageopacity="0"
     inkscape:pageshadow="2"
     inkscape:window-width="2467"
     inkscape:window-height="1057"
     id="namedview121"
     showgrid="false"
     inkscape:zoom="5.015625"
     inkscape:cx="146.65439"
     inkscape:cy="28"
     inkscape:window-x="1912"
     inkscape:window-y="-8"
     inkscape:window-maximized="1"
     inkscape:current-layer="svg119" />
  <path
     d="M2.08 12.75L23.36 1.08a4 4 0 013.91.03L48 12.96A4 4 0 0150 16.43v23.54a4 4 0 01-2.06 3.5l-20.7 11.47a4 4 0 01-3.84.02L2.1 43.46A4 4 0 010 39.94V16.26a4 4 0 012.08-3.5z"
     fill="url(#paint0_linear)"
     id="path100" />
  <ellipse
     rx="7.65"
     ry="18.78"
     transform="matrix(-.49197 .87061 .8678 .49693 25 27.9)"
     stroke="#fff"
     stroke-width="1.5"
     id="ellipse102" />
  <ellipse
     rx="7.65"
     ry="18.78"
     transform="matrix(-.49197 -.87061 .8678 -.49693 25 27.8)"
     stroke="#fff"
     stroke-width="1.5"
     id="ellipse104" />
  <ellipse
     cx="25.07"
     cy="27.85"
     rx="7.61"
     ry="18.87"
     transform="rotate(180 25.07 27.85)"
     stroke="#fff"
     stroke-width="1.5"
     id="ellipse106" />
  <ellipse
     cx="25.01"
     cy="27.73"
     rx="3.06"
     ry="3.04"
     transform="rotate(-90 25 27.73)"
     fill="#fff"
     id="ellipse108" />
  <defs
     id="defs117">
    <linearGradient
       id="paint0_linear"
       x1="24"
       y1="76"
       x2="26"
       y2="19.5"
       gradientUnits="userSpaceOnUse">
      <stop
         stop-color="#F231A5"
         id="stop112" />
      <stop
         offset="1"
         stop-color="#FF66C2"
         id="stop114" />
    </linearGradient>
  </defs>
  <text
     xml:space="preserve"
     style="font-style:normal;font-weight:normal;font-size:25.3333px;line-height:0;font-family:sans-serif;fill:#000000;fill-opacity:1;stroke:none"
     x="50.242989"
     y="35.887852"
     id="text127"><tspan
       sodipodi:role="line"
       id="tspan125"
       x="50.242989"
       y="35.887852"
       style="font-size:25.3333px;line-height:1.15">Next Boilerplate</tspan></text>
</svg>
